<?xml version="1.0" standalone="no"?>
<!DOCTYPE svg PUBLIC "-//W3C//DTD SVG 20010904//EN"
 "http://www.w3.org/TR/2001/REC-SVG-20010904/DTD/svg10.dtd">
<svg version="1.0" xmlns="http://www.w3.org/2000/svg"
 width="927.000000pt" height="927.000000pt" viewBox="0 0 927.000000 927.000000"
 preserveAspectRatio="xMidYMid meet">
<metadata>
Created by potrace 1.11, written by Peter Selinger 2001-2013
</metadata>
<g transform="translate(0.000000,927.000000) scale(0.100000,-0.100000)"
fill="#000000" stroke="none">
<path d="M4388 9265 c-2 -2 -49 -6 -105 -9 -56 -4 -110 -8 -120 -10 -20 -4
-122 -17 -168 -21 -25 -3 -100 -15 -240 -40 -16 -3 -38 -8 -47 -11 -10 -3 -30
-7 -45 -10 -231 -41 -631 -170 -903 -292 -542 -243 -981 -544 -1395 -957 -78
-77 -168 -171 -200 -210 -33 -38 -68 -79 -78 -90 -34 -36 -181 -228 -242 -315
-137 -194 -268 -416 -376 -636 -38 -79 -69 -145 -69 -148 0 -3 -11 -29 -24
-58 -92 -202 -206 -552 -261 -803 -18 -79 -35 -165 -40 -195 -2 -19 -6 -44 -8
-55 -14 -71 -25 -140 -32 -210 -4 -33 -9 -73 -10 -90 -26 -232 -26 -754 0
-945 3 -19 7 -57 10 -85 6 -54 19 -141 41 -267 42 -252 149 -626 249 -873 4
-11 9 -25 10 -31 2 -7 17 -41 34 -77 17 -36 31 -68 31 -72 0 -15 147 -305 210
-415 113 -196 332 -522 390 -580 3 -3 39 -45 80 -95 303 -365 679 -694 1092
-956 225 -143 531 -295 809 -403 164 -63 496 -165 598 -182 14 -3 53 -11 86
-19 84 -19 292 -56 340 -61 45 -4 131 -15 156 -19 136 -26 784 -25 940 0 13 2
51 6 84 10 81 8 121 14 180 25 28 6 68 12 90 15 22 3 51 8 65 11 45 10 142 31
180 40 30 6 202 51 245 64 774 234 1414 617 1975 1180 403 405 729 880 952
1390 110 251 238 629 265 780 2 14 11 51 19 84 16 62 50 240 60 315 3 25 8 54
10 65 2 10 6 44 9 75 3 31 8 70 10 86 26 183 26 806 0 955 -5 29 -13 86 -20
150 -3 25 -12 81 -20 125 -7 44 -16 94 -19 110 -32 201 -136 562 -233 808
-363 928 -996 1699 -1833 2232 -178 114 -421 245 -585 317 -38 16 -83 36 -100
44 -166 74 -612 218 -745 240 -14 3 -33 7 -42 10 -10 3 -28 7 -40 10 -13 2
-70 13 -128 24 -105 20 -343 53 -475 65 -70 7 -611 15 -617 10z"/>
</g>
</svg>
