<svg aria-hidden="true" style="position: absolute; width: 0; height: 0; overflow: hidden;" version="1.1" xmlns="http://www.w3.org/2000/svg" xmlns:xlink="http://www.w3.org/1999/xlink">
<defs>
<symbol id="icon-wallet" viewBox="0 0 32 32">
<path d="M16 20c0-1.105 0.895-2 2-2s2 0.895 2 2c0 1.105-0.895 2-2 2s-2-0.895-2-2zM29.001 13c-0.001 0-0.001 0 0 0l-0.001-6v-3c0-1.657-1.344-3-3-3h-20.5c-3.033 0-5.5 2.468-5.5 5.5v20c0 3.032 2.467 5.5 5.5 5.5h18c3.032 0 5.5-2.468 5.5-5.5v-1.5c0 0 0 0 0.001 0 3.998-3.001 3.998-8.999 0-12zM5.5 3h20.5c0.551 0 1 0.448 1 1v6.184c-0.314-0.112-0.648-0.184-1-0.184h-0.001v-5c0-0.553-0.448-1-1-1h-21c-0.552 0-1 0.447-1 1v3.943c-0.617-0.631-0.999-1.491-0.999-2.443 0-1.933 1.566-3.5 3.5-3.5zM24.999 6h-21v-1h21v1zM24.999 7v1h-21v-1h21zM24.999 9v1h-19.499c-0.54 0-1.044-0.132-1.5-0.35v-0.65h20.999zM27 26.5c0 1.933-1.567 3.5-3.5 3.5h-18c-1.934 0-3.5-1.567-3.5-3.5v-15.761c0.951 0.787 2.171 1.261 3.5 1.261h20.5c0.551 0 1 0.448 1 1v2h-9c-2.762 0-5 2.238-5 5s2.239 5 5 5h9v1.5zM28.277 23h-10.277c-1.654 0-3-1.346-3-3s1.346-3 3-3h9c0.617-0.008 1.229-0.307 1.602-0.804 0.104-0.14 0.185-0.297 0.25-0.461 0.009-0.022 0.025-0.039 0.033-0.062 0.719 0.943 1.115 2.099 1.115 3.327 0 1.538-0.621 2.965-1.723 4z"></path>
</symbol>
<symbol id="icon-handshake-o" viewBox="0 0 36 28">
<path d="M3 18c1.313 0 1.313-2 0-2s-1.313 2 0 2zM26.016 17.094c-1.234-1.609-2.438-3.25-3.844-4.719l-1.953 2.188c-1.719 1.953-4.797 1.906-6.469-0.094-1.188-1.437-1.188-3.5 0.031-4.922l2.766-3.219c-0.969-0.5-2.141-0.328-3.187-0.328-0.922 0-1.813 0.375-2.469 1.031l-2.469 2.469h-2.422v8.5c0.688 0 1.312-0.094 1.859 0.438l4.641 4.562c0.953 0.922 2.187 1.734 3.547 1.734 0.703 0 1.453-0.234 1.953-0.734 1.172 0.406 2.531-0.25 2.891-1.453 0.75 0.063 1.437-0.172 1.984-0.688 0.359-0.328 0.828-0.984 0.781-1.5 0.141 0.141 0.484 0.156 0.672 0.156 1.859 0 2.828-1.953 1.687-3.422zM28.5 18h1.5v-8h-1.453l-2.453-2.812c-0.656-0.75-1.641-1.188-2.641-1.188h-2.609c-0.875 0-1.719 0.391-2.281 1.047l-3.266 3.797c-0.578 0.688-0.578 1.656-0.016 2.344 0.891 1.062 2.531 1.078 3.453 0.047l3.016-3.406c0.719-0.797 2.031-0.047 1.703 0.969 0.594 0.688 1.234 1.359 1.813 2.047 0.781 0.969 1.531 1.984 2.297 2.969 0.484 0.625 0.844 1.375 0.938 2.188zM33 18c1.313 0 1.313-2 0-2s-1.313 2 0 2zM36 9v10c0 0.547-0.453 1-1 1h-6.781c-0.562 1.359-1.797 2.266-3.234 2.469-0.672 0.984-1.703 1.734-2.859 1.984-0.859 1.094-2.25 1.75-3.641 1.656-2.578 1.453-5.484 0.187-7.406-1.703l-4.484-4.406h-5.594c-0.547 0-1-0.453-1-1v-10.5c0-0.547 0.453-1 1-1h6.578c1.813-1.813 3.062-3.5 5.781-3.5h1.828c1.016 0 2 0.313 2.828 0.875 0.828-0.562 1.813-0.875 2.828-0.875h2.609c2.969 0 4.203 1.937 6 4h5.547c0.547 0 1 0.453 1 1z"></path>
</symbol>
<symbol id="icon-instagram" viewBox="0 0 32 32">
<path fill="#e4405f" style="fill: var(--color1, #e4405f)" d="M16 0c-4.347 0-4.889 0.020-6.596 0.096-1.704 0.080-2.864 0.348-3.884 0.744-1.052 0.408-1.945 0.956-2.835 1.845s-1.439 1.781-1.845 2.835c-0.396 1.020-0.665 2.18-0.744 3.884-0.080 1.707-0.096 2.249-0.096 6.596s0.020 4.889 0.096 6.596c0.080 1.703 0.348 2.864 0.744 3.884 0.408 1.051 0.956 1.945 1.845 2.835 0.889 0.888 1.781 1.439 2.835 1.845 1.021 0.395 2.181 0.665 3.884 0.744 1.707 0.080 2.249 0.096 6.596 0.096s4.889-0.020 6.596-0.096c1.703-0.080 2.864-0.349 3.884-0.744 1.051-0.408 1.945-0.957 2.835-1.845 0.888-0.889 1.439-1.78 1.845-2.835 0.395-1.020 0.665-2.181 0.744-3.884 0.080-1.707 0.096-2.249 0.096-6.596s-0.020-4.889-0.096-6.596c-0.080-1.703-0.349-2.865-0.744-3.884-0.408-1.052-0.957-1.945-1.845-2.835-0.889-0.889-1.78-1.439-2.835-1.845-1.020-0.396-2.181-0.665-3.884-0.744-1.707-0.080-2.249-0.096-6.596-0.096zM16 2.88c4.271 0 4.78 0.021 6.467 0.095 1.56 0.073 2.407 0.332 2.969 0.553 0.749 0.289 1.28 0.636 1.843 1.195 0.559 0.56 0.905 1.092 1.195 1.841 0.219 0.563 0.48 1.409 0.551 2.969 0.076 1.688 0.093 2.195 0.093 6.467s-0.020 4.78-0.099 6.467c-0.081 1.56-0.341 2.407-0.561 2.969-0.299 0.749-0.639 1.28-1.199 1.843-0.559 0.559-1.099 0.905-1.84 1.195-0.56 0.219-1.42 0.48-2.98 0.551-1.699 0.076-2.199 0.093-6.479 0.093-4.281 0-4.781-0.020-6.479-0.099-1.561-0.081-2.421-0.341-2.981-0.561-0.759-0.299-1.28-0.639-1.839-1.199-0.561-0.559-0.92-1.099-1.2-1.84-0.22-0.56-0.479-1.42-0.56-2.98-0.060-1.68-0.081-2.199-0.081-6.459 0-4.261 0.021-4.781 0.081-6.481 0.081-1.56 0.34-2.419 0.56-2.979 0.28-0.76 0.639-1.28 1.2-1.841 0.559-0.559 1.080-0.919 1.839-1.197 0.56-0.221 1.401-0.481 2.961-0.561 1.7-0.060 2.2-0.080 6.479-0.080zM16 7.784c-4.54 0-8.216 3.68-8.216 8.216 0 4.54 3.68 8.216 8.216 8.216 4.54 0 8.216-3.68 8.216-8.216 0-4.54-3.68-8.216-8.216-8.216zM16 21.333c-2.947 0-5.333-2.387-5.333-5.333s2.387-5.333 5.333-5.333 5.333 2.387 5.333 5.333-2.387 5.333-5.333 5.333zM26.461 7.46c0 1.060-0.861 1.92-1.92 1.92-1.060 0-1.92-0.861-1.92-1.92s0.861-1.919 1.92-1.919c1.057-0.001 1.92 0.86 1.92 1.919z"></path>
</symbol>
<symbol id="icon-viber" viewBox="0 0 32 32">
<path fill="#665cac" style="fill: var(--color2, #665cac)" d="M15.197 0.003c-2.567 0.035-8.089 0.456-11.179 3.287-2.293 2.28-3.095 5.641-3.188 9.804-0.080 4.147-0.173 11.933 7.333 14.055v3.227c0 0-0.051 1.293 0.803 1.56 1.053 0.333 1.653-0.665 2.653-1.732l1.867-2.107c5.133 0.427 9.067-0.559 9.52-0.705 1.040-0.333 6.908-1.081 7.868-8.869 0.987-8.041-0.48-13.108-3.12-15.401l-0.013-0.003c-0.8-0.733-4-3.067-11.16-3.093 0 0-0.528-0.033-1.384-0.021zM15.287 2.265c0.727-0.004 1.173 0.027 1.173 0.027 6.053 0.013 8.948 1.84 9.628 2.453 2.227 1.905 3.371 6.475 2.533 13.189-0.8 6.507-5.56 6.92-6.44 7.2-0.373 0.12-3.84 0.973-8.203 0.693 0 0-3.252 3.921-4.265 4.935-0.16 0.173-0.347 0.227-0.467 0.2-0.173-0.040-0.227-0.253-0.213-0.547l0.027-5.359c-6.361-1.76-5.988-8.403-5.921-11.869 0.080-3.467 0.733-6.309 2.667-8.229 2.609-2.36 7.3-2.68 9.481-2.693zM15.767 5.732c-0 0-0.001 0-0.001 0-0.22 0-0.399 0.178-0.399 0.399 0 0 0 0 0 0v0c0 0.221 0.179 0.4 0.4 0.4v0c0.043-0.001 0.093-0.001 0.143-0.001 2.034 0 3.88 0.809 5.232 2.123l-0.002-0.002c1.453 1.413 2.161 3.307 2.188 5.787 0 0.221 0.179 0.4 0.4 0.4v0-0.012c0.221 0 0.4-0.179 0.4-0.4v0c0.005-0.109 0.008-0.236 0.008-0.364 0-2.326-0.923-4.436-2.423-5.985l0.002 0.002c-1.587-1.547-3.589-2.347-5.948-2.347zM10.495 6.652c-0.054-0.008-0.116-0.013-0.18-0.013-0.236 0-0.457 0.064-0.646 0.176l0.006-0.003h-0.016c-0.547 0.32-1.051 0.72-1.531 1.253-0.36 0.427-0.561 0.852-0.615 1.265-0.009 0.064-0.014 0.137-0.014 0.212 0 0.182 0.029 0.357 0.084 0.521l-0.003-0.012 0.027 0.013c0.458 1.331 0.998 2.476 1.646 3.549l-0.046-0.082c0.895 1.608 1.922 2.996 3.101 4.237l-0.008-0.009 0.040 0.053 0.053 0.040 0.080 0.080c1.236 1.174 2.628 2.205 4.136 3.053l0.104 0.054c1.76 0.96 2.829 1.413 3.469 1.6v0.013c0.187 0.053 0.357 0.080 0.531 0.080 0.57-0.043 1.079-0.274 1.471-0.631l-0.002 0.002c0.52-0.467 0.933-0.984 1.24-1.531v-0.013c0.307-0.573 0.2-1.121-0.24-1.495-0.845-0.742-1.782-1.421-2.781-2.007l-0.085-0.046c-0.68-0.373-1.373-0.147-1.653 0.227l-0.6 0.759c-0.307 0.373-0.867 0.32-0.867 0.32l-0.016 0.013c-4.16-1.067-5.267-5.279-5.267-5.279s-0.053-0.573 0.333-0.867l0.747-0.6c0.36-0.293 0.613-0.987 0.227-1.667-0.631-1.084-1.31-2.022-2.071-2.887l0.017 0.020c-0.166-0.204-0.399-0.349-0.665-0.399l-0.007-0.001zM16.459 7.839c-0.22 0.001-0.399 0.18-0.399 0.4s0.179 0.4 0.4 0.4c0 0 0.001 0 0.001 0h-0c1.388 0.025 2.636 0.607 3.532 1.532l0.001 0.001c0.75 0.825 1.209 1.926 1.209 3.134 0 0.103-0.003 0.205-0.010 0.306l0.001-0.014c0.001 0.22 0.18 0.399 0.4 0.399 0 0 0 0 0 0v0l0.013 0.016c0 0 0 0 0 0 0.221 0 0.4-0.179 0.4-0.4 0-0 0-0.001 0-0.001v0c0.040-1.587-0.453-2.92-1.427-3.987s-2.333-1.667-4.067-1.787c-0.008-0.001-0.018-0.001-0.028-0.001s-0.020 0-0.029 0.001l0.001-0zM17.112 9.997c-0.004-0-0.008-0-0.012-0-0.225 0-0.407 0.182-0.407 0.408 0 0.221 0.176 0.401 0.395 0.407h0.001c1.32 0.067 1.96 0.733 2.040 2.107 0.007 0.215 0.184 0.387 0.4 0.387 0 0 0 0 0 0h0.013c0.215-0.007 0.388-0.183 0.388-0.4 0-0.009-0-0.019-0.001-0.028l0 0.001c-0.093-1.787-1.067-2.788-2.8-2.881-0.002-0-0.005-0-0.008-0s-0.006 0-0.008 0h0z"></path>
</symbol>
<symbol id="icon-whatsapp" viewBox="0 0 32 32">
<path fill="#25d366" style="fill: var(--color3, #25d366)" d="M23.331 19.176c-0.401-0.2-2.356-1.156-2.72-1.288-0.364-0.135-0.631-0.2-0.897 0.2-0.263 0.393-1.028 1.285-1.259 1.549-0.233 0.26-0.465 0.28-0.861 0.1-0.4-0.2-1.684-0.62-3.204-1.98-1.184-1.060-1.979-2.36-2.213-2.76-0.232-0.4-0.025-0.62 0.173-0.82 0.181-0.18 0.401-0.46 0.601-0.697 0.195-0.241 0.259-0.401 0.396-0.661 0.133-0.28 0.065-0.5-0.033-0.699-0.1-0.2-0.896-2.16-1.229-2.941-0.32-0.779-0.649-0.68-0.896-0.68-0.229-0.020-0.495-0.020-0.761-0.020s-0.697 0.099-1.063 0.479c-0.364 0.4-1.393 1.36-1.393 3.3s1.427 3.82 1.625 4.1c0.199 0.26 2.807 4.26 6.8 5.98 0.952 0.4 1.693 0.64 2.272 0.839 0.952 0.303 1.82 0.26 2.507 0.161 0.765-0.121 2.356-0.961 2.688-1.901 0.34-0.94 0.34-1.72 0.24-1.9-0.099-0.18-0.36-0.28-0.76-0.46zM16.081 29h-0.021c-2.36 0-4.699-0.64-6.74-1.84l-0.48-0.285-5 1.3 1.34-4.86-0.319-0.5c-1.32-2.101-2.021-4.521-2.021-7.013 0-7.26 5.94-13.18 13.256-13.18 3.539 0 6.86 1.38 9.361 3.88 2.5 2.479 3.879 5.8 3.879 9.32-0.005 7.259-5.947 13.18-13.247 13.18zM27.36 4.599c-3.040-2.939-7.040-4.599-11.3-4.599-8.776 0-15.921 7.112-15.925 15.857 0 2.795 0.732 5.52 2.127 7.927l-2.261 8.216 8.447-2.203c2.328 1.257 4.947 1.925 7.613 1.929h0.008c8.78 0 15.928-7.115 15.932-15.861 0-4.235-1.653-8.22-4.66-11.215z"></path>
</symbol>
<symbol id="icon-chevron-down" viewBox="0 0 24 24">
<path d="M5.293 9.707l6 6c0.391 0.391 1.024 0.391 1.414 0l6-6c0.391-0.391 0.391-1.024 0-1.414s-1.024-0.391-1.414 0l-5.293 5.293-5.293-5.293c-0.391-0.391-1.024-0.391-1.414 0s-0.391 1.024 0 1.414z"></path>
</symbol>
<symbol id="icon-file-text" viewBox="0 0 24 24">
<path d="M17.586 7h-2.586v-2.586zM20.707 7.293l-6-6c-0.092-0.092-0.202-0.166-0.324-0.217s-0.253-0.076-0.383-0.076h-8c-0.828 0-1.58 0.337-2.121 0.879s-0.879 1.293-0.879 2.121v16c0 0.828 0.337 1.58 0.879 2.121s1.293 0.879 2.121 0.879h12c0.828 0 1.58-0.337 2.121-0.879s0.879-1.293 0.879-2.121v-12c0-0.276-0.112-0.526-0.293-0.707zM13 3v5c0 0.552 0.448 1 1 1h5v11c0 0.276-0.111 0.525-0.293 0.707s-0.431 0.293-0.707 0.293h-12c-0.276 0-0.525-0.111-0.707-0.293s-0.293-0.431-0.293-0.707v-16c0-0.276 0.111-0.525 0.293-0.707s0.431-0.293 0.707-0.293zM16 12h-8c-0.552 0-1 0.448-1 1s0.448 1 1 1h8c0.552 0 1-0.448 1-1s-0.448-1-1-1zM16 16h-8c-0.552 0-1 0.448-1 1s0.448 1 1 1h8c0.552 0 1-0.448 1-1s-0.448-1-1-1zM10 8h-2c-0.552 0-1 0.448-1 1s0.448 1 1 1h2c0.552 0 1-0.448 1-1s-0.448-1-1-1z"></path>
</symbol>
<symbol id="icon-phone-call" viewBox="0 0 24 24">
<path d="M14.859 5.981c0.943 0.184 1.74 0.683 2.31 1.374 0.42 0.51 0.716 1.124 0.852 1.793 0.109 0.541 0.637 0.891 1.178 0.782s0.891-0.637 0.782-1.178c-0.2-0.992-0.64-1.907-1.269-2.669-0.854-1.036-2.057-1.789-3.47-2.064-0.542-0.106-1.067 0.248-1.173 0.79s0.248 1.067 0.79 1.173zM14.94 1.994c2 0.222 3.743 1.162 5.005 2.544 1.118 1.224 1.858 2.794 2.062 4.519 0.065 0.548 0.562 0.941 1.11 0.876s0.941-0.562 0.876-1.11c-0.253-2.147-1.176-4.106-2.571-5.634-1.578-1.728-3.762-2.906-6.261-3.183-0.549-0.061-1.043 0.335-1.104 0.883s0.335 1.043 0.883 1.104zM23 16.92c0.016-0.714-0.236-1.404-0.673-1.943-0.46-0.566-1.129-0.967-1.925-1.080-0.8-0.098-1.695-0.314-2.586-0.646-0.433-0.159-0.893-0.218-1.344-0.174-0.663 0.064-1.307 0.349-1.819 0.855l-0.72 0.72c-1.77-1.117-3.36-2.667-4.583-4.589l0.726-0.726c0.322-0.33 0.563-0.726 0.707-1.156 0.212-0.632 0.214-1.336-0.039-2.011-0.289-0.753-0.518-1.644-0.644-2.595-0.104-0.714-0.456-1.345-0.963-1.804-0.539-0.486-1.256-0.779-2.027-0.771h-2.996c-0.088 0-0.182 0.004-0.273 0.012-0.824 0.075-1.542 0.478-2.033 1.066s-0.758 1.367-0.683 2.199c0.3 3.076 1.365 6.243 3.216 9.102 1.502 2.413 3.648 4.623 6.298 6.306 2.568 1.697 5.684 2.862 9.086 3.231 0.092 0.009 0.191 0.013 0.288 0.013 0.828-0.003 1.578-0.343 2.118-0.887s0.873-1.297 0.87-2.121zM21 16.92v3c0.001 0.28-0.109 0.53-0.29 0.712s-0.429 0.295-0.706 0.296c-3.149-0.336-5.961-1.391-8.263-2.912-2.428-1.543-4.359-3.537-5.702-5.694-1.697-2.62-2.655-5.481-2.924-8.238-0.024-0.268 0.064-0.526 0.229-0.724s0.403-0.33 0.678-0.355l3.088-0.005c0.271-0.003 0.507 0.094 0.687 0.256 0.17 0.154 0.288 0.366 0.323 0.608 0.142 1.072 0.408 2.117 0.757 3.025 0.081 0.216 0.080 0.447 0.010 0.658-0.049 0.145-0.131 0.281-0.242 0.395l-1.262 1.261c-0.324 0.324-0.379 0.814-0.162 1.201 1.584 2.785 3.839 4.957 6.381 6.378 0.397 0.222 0.882 0.144 1.195-0.166l1.27-1.27c0.166-0.164 0.377-0.257 0.598-0.279 0.152-0.015 0.31 0.005 0.459 0.060 1.022 0.381 2.070 0.636 3.034 0.754 0.241 0.034 0.462 0.166 0.615 0.355 0.147 0.181 0.231 0.412 0.226 0.682z"></path>
</symbol>
<symbol id="icon-wrench" viewBox="0 0 32 32">
<path d="M31.342 25.559l-14.392-12.336c0.67-1.259 1.051-2.696 1.051-4.222 0-4.971-4.029-9-9-9-0.909 0-1.787 0.135-2.614 0.386l5.2 5.2c0.778 0.778 0.778 2.051 0 2.828l-3.172 3.172c-0.778 0.778-2.051 0.778-2.828 0l-5.2-5.2c-0.251 0.827-0.386 1.705-0.386 2.614 0 4.971 4.029 9 9 9 1.526 0 2.963-0.38 4.222-1.051l12.336 14.392c0.716 0.835 1.938 0.882 2.716 0.104l3.172-3.172c0.778-0.778 0.731-2-0.104-2.716z"></path>
</symbol>
<symbol id="icon-cog" viewBox="0 0 32 32">
<path d="M29.181 19.070c-1.679-2.908-0.669-6.634 2.255-8.328l-3.145-5.447c-0.898 0.527-1.943 0.829-3.058 0.829-3.361 0-6.085-2.742-6.085-6.125h-6.289c0.008 1.044-0.252 2.103-0.811 3.070-1.679 2.908-5.411 3.897-8.339 2.211l-3.144 5.447c0.905 0.515 1.689 1.268 2.246 2.234 1.676 2.903 0.672 6.623-2.241 8.319l3.145 5.447c0.895-0.522 1.935-0.82 3.044-0.82 3.35 0 6.067 2.725 6.084 6.092h6.289c-0.003-1.034 0.259-2.080 0.811-3.038 1.676-2.903 5.399-3.894 8.325-2.219l3.145-5.447c-0.899-0.515-1.678-1.266-2.232-2.226zM16 22.479c-3.578 0-6.479-2.901-6.479-6.479s2.901-6.479 6.479-6.479c3.578 0 6.479 2.901 6.479 6.479s-2.901 6.479-6.479 6.479z"></path>
</symbol>
<symbol id="icon-power-cord" viewBox="0 0 32 32">
<path d="M32 8.828l-2.828-2.828-5.586 5.586-3.172-3.172 5.586-5.586-2.828-2.828-5.586 5.586-3.586-3.586-2.707 2.707 16 16 2.707-2.707-3.586-3.586 5.586-5.586z"></path>
<path d="M24.814 21.056l-13.87-13.87c-2.994 3.591-6.391 9.139-4.044 13.913l-4.133 4.133c-0.972 0.972-0.972 2.563 0 3.535l0.464 0.464c0.972 0.972 2.563 0.972 3.536 0l4.133-4.133c4.774 2.348 10.322-1.049 13.913-4.043z"></path>
</symbol>
</defs>
</svg>
